<svg version="1.1" viewBox="0.0 0.0 960.0 720.0" fill="none" stroke="none" stroke-linecap="square" stroke-miterlimit="10" xmlns:xlink="http://www.w3.org/1999/xlink" xmlns="http://www.w3.org/2000/svg"><clipPath id="p.0"><path d="m0 0l960.0 0l0 720.0l-960.0 0l0 -720.0z" clip-rule="nonzero"/></clipPath><g clip-path="url(#p.0)"><path fill="#000000" fill-opacity="0.0" d="m0 0l960.0 0l0 720.0l-960.0 0z" fill-rule="evenodd"/><path fill="#000000" d="m165.46457 92.84498l0 0c0 -14.897102 12.076477 -26.973587 26.973587 -26.973587l575.12366 0c7.1538696 0 14.014709 2.8418503 19.073242 7.900383c5.0585327 5.058525 7.9003906 11.919365 7.9003906 19.073204l0 29.29692c0 14.897102 -12.076538 26.97358 -26.973633 26.97358l-575.12366 0c-14.89711 0 -26.973587 -12.076477 -26.973587 -26.97358z" fill-rule="evenodd"/><path stroke="#000000" stroke-width="1.0" stroke-linejoin="round" stroke-linecap="butt" d="m165.46457 92.84498l0 0c0 -14.897102 12.076477 -26.973587 26.973587 -26.973587l575.12366 0c7.1538696 0 14.014709 2.8418503 19.073242 7.900383c5.0585327 5.058525 7.9003906 11.919365 7.9003906 19.073204l0 29.29692c0 14.897102 -12.076538 26.97358 -26.973633 26.97358l-575.12366 0c-14.89711 0 -26.973587 -12.076477 -26.973587 -26.97358z" fill-rule="evenodd"/><path fill="#000000" d="m165.46457 241.20193l0 0c0 -14.89711 12.076477 -26.973587 26.973587 -26.973587l575.12366 0c7.1538696 0 14.014709 2.8418427 19.073242 7.9003754c5.0585327 5.0585327 7.9003906 11.919373 7.9003906 19.073212l0 29.296936c0 14.897095 -12.076538 26.973572 -26.973633 26.973572l-575.12366 0c-14.89711 0 -26.973587 -12.076477 -26.973587 -26.973572z" fill-rule="evenodd"/><path stroke="#000000" stroke-width="1.0" stroke-linejoin="round" stroke-linecap="butt" d="m165.46457 241.20193l0 0c0 -14.89711 12.076477 -26.973587 26.973587 -26.973587l575.12366 0c7.1538696 0 14.014709 2.8418427 19.073242 7.9003754c5.0585327 5.0585327 7.9003906 11.919373 7.9003906 19.073212l0 29.296936c0 14.897095 -12.076538 26.973572 -26.973633 26.973572l-575.12366 0c-14.89711 0 -26.973587 -12.076477 -26.973587 -26.973572z" fill-rule="evenodd"/><path fill="#000000" d="m165.46457 389.5589l0 0c0 -14.897125 12.076477 -26.973602 26.973587 -26.973602l575.12366 0c7.1538696 0 14.014709 2.841858 19.073242 7.9003906c5.0585327 5.0585327 7.9003906 11.919373 7.9003906 19.073212l0 29.296906c0 14.897095 -12.076538 26.973602 -26.973633 26.973602l-575.12366 0c-14.89711 0 -26.973587 -12.076508 -26.973587 -26.973602z" fill-rule="evenodd"/><path stroke="#000000" stroke-width="1.0" stroke-linejoin="round" stroke-linecap="butt" d="m165.46457 389.5589l0 0c0 -14.897125 12.076477 -26.973602 26.973587 -26.973602l575.12366 0c7.1538696 0 14.014709 2.841858 19.073242 7.9003906c5.0585327 5.0585327 7.9003906 11.919373 7.9003906 19.073212l0 29.296906c0 14.897095 -12.076538 26.973602 -26.973633 26.973602l-575.12366 0c-14.89711 0 -26.973587 -12.076508 -26.973587 -26.973602z" fill-rule="evenodd"/></g></svg>